<svg xmlns="http://www.w3.org/2000/svg" xmlns:v="https://svgstorm.com"
viewBox = "0 0 1024 1024"
width="1024"
height="1024">
<g fill="None" fill-opacity="0.0" stroke="#F8F8F8" stroke-opacity="1.00" stroke-width="0.3"><path d="
M 0.00 1024.00 
L 1024.00 1024.00
L 1024.00 0.00
L 0.00 0.00
L 0.00 1024.00
M 533.00 364.00 
C 532.53 364.11 532.00 364.00 532.00 364.00
C 525.98 370.29 515.62 378.36 517.00 365.00 C 518.38 351.64 515.96 342.94 517.00 330.00
C 510.03 329.13 506.00 335.90 500.00 338.00
C 499.56 338.16 499.00 338.00 499.00 338.00
C 496.98 340.16 496.38 342.84 495.00 345.00
C 487.74 345.20 485.21 351.51 477.77 355.77 C 470.32 360.02 473.28 372.76 473.00 382.00 C 472.72 391.24 473.10 402.22 473.00 412.00 C 472.90 421.78 473.01 432.98 473.00 443.00 C 472.99 453.02 472.93 463.94 473.00 474.00 C 473.07 484.06 472.79 493.98 473.00 504.00 C 473.21 514.02 472.53 525.12 473.00 535.00 C 473.47 544.88 471.05 555.96 475.00 564.00
C 475.49 563.94 476.00 564.00 476.00 564.00
C 481.31 561.10 488.96 564.25 493.67 561.67 C 498.38 559.09 493.85 545.18 495.00 540.00 C 496.15 534.82 494.86 523.70 495.00 518.00 C 495.14 512.30 495.65 500.02 495.00 495.00 C 494.35 489.98 495.68 474.77 498.00 479.00
C 498.35 479.63 498.71 481.21 499.00 482.00
C 499.16 482.44 499.00 483.00 499.00 483.00
C 506.10 487.96 509.88 495.58 514.00 503.00
C 514.68 504.22 515.10 505.73 516.00 507.00
C 520.20 511.99 521.36 515.28 521.00 522.00 C 520.64 528.72 519.85 536.12 521.00 542.00 C 522.15 547.88 517.82 558.46 521.00 563.00
C 522.61 564.61 525.68 563.95 528.00 564.00
C 537.10 564.18 545.87 563.99 554.00 566.00
C 565.42 566.91 578.66 570.14 589.67 572.33 C 600.69 574.51 612.16 577.75 622.22 581.78 C 632.29 585.80 646.38 586.62 650.00 597.00
C 629.72 596.81 610.33 593.03 590.00 593.00
C 585.26 593.00 579.99 592.39 576.00 592.00
C 572.00 592.00 568.00 592.00 564.00 592.00
C 560.00 592.00 556.00 592.00 552.00 592.00
C 528.00 592.00 504.00 592.00 480.00 592.00
C 472.67 592.00 465.33 592.00 458.00 592.00
C 453.67 592.00 449.33 592.00 445.00 592.00
C 425.66 593.87 404.71 597.00 384.00 597.00
C 377.06 597.00 372.26 596.44 365.33 598.33 C 358.40 600.22 354.49 595.18 361.23 592.23 C 367.97 589.28 368.71 588.53 375.00 586.00
C 383.91 579.82 387.63 576.33 386.00 564.00 C 384.37 551.67 386.80 541.70 386.00 530.00 C 385.20 518.30 386.46 508.39 386.00 497.00 C 385.54 485.61 386.43 474.24 386.00 463.00 C 385.57 451.76 387.14 440.71 385.00 430.00
C 386.35 428.96 387.01 426.51 389.00 426.00
C 389.42 425.81 390.00 426.00 390.00 426.00
C 396.47 419.25 404.43 413.60 412.23 408.23 C 420.03 402.86 427.10 396.33 434.00 393.00
C 434.43 389.61 434.77 387.64 437.00 385.00
C 437.16 388.58 442.62 387.41 439.00 385.00
C 452.02 384.35 446.83 364.49 447.00 354.00 C 447.17 343.51 457.01 338.83 465.25 333.25 C 473.48 327.66 479.41 322.57 486.30 317.30 C 493.19 312.02 502.13 309.10 507.00 301.00
C 512.95 304.15 520.00 292.85 523.75 290.75 C 527.50 288.66 539.36 277.43 540.97 285.03 C 542.58 292.63 540.36 305.52 541.00 314.00 C 541.64 322.48 540.86 334.44 541.00 343.00 C 541.14 351.56 543.98 363.31 533.00 364.00
M 575.00 553.00 
C 574.76 553.32 575.00 554.00 575.00 554.00
C 574.58 555.21 573.26 555.74 573.00 557.00
C 566.73 553.15 559.76 546.88 555.25 540.75 C 550.74 534.62 543.35 527.87 541.00 522.00
C 534.11 514.25 528.13 505.64 521.00 498.00
C 518.39 495.20 514.79 491.21 512.23 488.77 C 509.67 486.33 508.74 478.45 506.00 484.00
C 504.35 479.90 505.23 477.66 504.00 472.00
C 503.84 471.56 504.00 471.00 504.00 471.00
C 499.66 465.59 496.65 459.14 497.00 452.00 C 497.35 444.86 495.81 430.36 497.00 424.00 C 498.19 417.64 499.93 406.48 506.00 404.00
C 506.17 403.57 506.00 403.00 506.00 403.00
C 507.08 391.45 520.00 383.73 528.23 376.23 C 536.46 368.73 551.50 364.11 564.00 363.00 C 576.50 361.89 593.69 364.64 604.00 368.00
C 603.03 372.91 611.12 375.05 615.25 377.75 C 619.37 380.46 626.13 383.70 627.00 389.00
C 628.32 387.97 629.05 381.73 631.00 386.00
C 630.92 387.71 629.76 388.90 629.00 391.00
C 641.57 404.85 644.66 418.13 645.00 437.00 C 645.34 455.87 641.06 470.70 631.25 483.25 C 621.43 495.79 613.91 508.36 604.10 520.10 C 594.29 531.84 585.86 542.88 575.00 553.00 Z"/>
</g>
<g fill="None" fill-opacity="0.0" stroke="#C6EDF8" stroke-opacity="1.00" stroke-width="0.3"><path d="
M 390.00 426.00 
C 395.28 424.09 399.38 419.01 404.08 416.08 C 408.79 413.15 414.44 409.08 418.70 405.70 C 422.96 402.32 429.85 399.15 433.23 395.23 C 436.61 391.31 446.11 389.14 448.00 385.00
C 451.23 372.90 442.50 350.01 454.08 343.08 C 465.66 336.16 472.59 329.83 483.08 323.08 C 493.58 316.33 500.60 309.23 510.75 302.75 C 520.89 296.26 529.24 288.01 540.00 283.00
C 539.03 296.70 541.29 313.62 540.00 327.00 C 538.71 340.38 545.45 357.36 533.00 364.00
C 543.98 363.31 541.14 351.56 541.00 343.00 C 540.86 334.44 541.64 322.48 541.00 314.00 C 540.36 305.52 542.58 292.63 540.97 285.03 C 539.36 277.43 527.50 288.66 523.75 290.75 C 520.00 292.85 512.95 304.15 507.00 301.00
C 502.13 309.10 493.19 312.02 486.30 317.30 C 479.41 322.57 473.48 327.66 465.25 333.25 C 457.01 338.83 447.17 343.51 447.00 354.00 C 446.83 364.49 452.02 384.35 439.00 385.00
C 442.62 387.41 437.16 388.58 437.00 385.00
C 434.77 387.64 434.43 389.61 434.00 393.00
C 427.10 396.33 420.03 402.86 412.23 408.23 C 404.43 413.60 396.47 419.25 390.00 426.00 Z"/>
</g>
<g fill="None" fill-opacity="0.0" stroke="#0C8FCA" stroke-opacity="1.00" stroke-width="0.3"><path d="
M 448.00 385.00 
C 446.11 392.09 438.42 391.95 443.00 400.00
C 451.79 395.90 460.84 413.04 465.00 405.00
C 465.62 408.29 468.08 410.77 467.00 415.00
C 470.88 397.11 468.03 378.55 469.00 363.00
C 473.38 371.66 470.02 385.83 471.00 397.00 C 471.98 408.17 469.43 421.57 472.00 432.00
C 472.00 412.27 473.63 391.64 472.00 372.00 C 470.37 352.36 485.31 348.45 499.00 338.00
C 499.00 338.00 499.56 338.16 500.00 338.00
C 504.26 331.91 512.14 328.73 518.00 325.00
C 518.00 341.00 518.00 357.00 518.00 373.00
C 522.74 370.02 527.05 366.56 532.00 364.00
C 532.00 364.00 532.53 364.11 533.00 364.00
C 545.45 357.36 538.71 340.38 540.00 327.00 C 541.29 313.62 539.03 296.70 540.00 283.00
C 529.24 288.01 520.89 296.26 510.75 302.75 C 500.60 309.23 493.58 316.33 483.08 323.08 C 472.59 329.83 465.66 336.16 454.08 343.08 C 442.50 350.01 451.23 372.90 448.00 385.00 Z"/>
</g>
<g fill="None" fill-opacity="0.0" stroke="#B7E3F1" stroke-opacity="1.00" stroke-width="0.3"><path d="
M 500.00 338.00 
C 506.00 335.90 510.03 329.13 517.00 330.00
C 515.96 342.94 518.38 351.64 517.00 365.00 C 515.62 378.36 525.98 370.29 532.00 364.00
C 527.05 366.56 522.74 370.02 518.00 373.00
C 518.00 357.00 518.00 341.00 518.00 325.00
C 512.14 328.73 504.26 331.91 500.00 338.00 Z"/>
</g>
<g fill="None" fill-opacity="0.0" stroke="#BEE5F5" stroke-opacity="1.00" stroke-width="0.3"><path d="
M 472.00 432.00 
C 472.00 448.00 472.00 464.00 472.00 480.00
C 472.00 508.00 472.00 536.00 472.00 564.00
C 473.00 564.00 474.00 564.00 475.00 564.00
C 471.05 555.96 473.47 544.88 473.00 535.00 C 472.53 525.12 473.21 514.02 473.00 504.00 C 472.79 493.98 473.07 484.06 473.00 474.00 C 472.93 463.94 472.99 453.02 473.00 443.00 C 473.01 432.98 472.90 421.78 473.00 412.00 C 473.10 402.22 472.72 391.24 473.00 382.00 C 473.28 372.76 470.32 360.02 477.77 355.77 C 485.21 351.51 487.74 345.20 495.00 345.00
C 496.38 342.84 496.98 340.16 499.00 338.00
C 485.31 348.45 470.37 352.36 472.00 372.00 C 473.63 391.64 472.00 412.27 472.00 432.00 Z"/>
</g>
<g fill="None" fill-opacity="0.0" stroke="#1081C0" stroke-opacity="1.00" stroke-width="0.3"><path d="
M 448.00 385.00 
C 446.11 389.14 436.61 391.31 433.23 395.23 C 429.85 399.15 422.96 402.32 418.70 405.70 C 414.44 409.08 408.79 413.15 404.08 416.08 C 399.38 419.01 395.28 424.09 390.00 426.00
C 390.00 426.00 389.42 425.81 389.00 426.00
C 383.06 430.17 388.35 442.93 387.00 450.00 C 385.65 457.07 387.59 467.94 387.00 476.00 C 386.41 484.06 387.28 494.55 387.00 503.00 C 386.72 511.45 387.13 520.38 387.00 529.00 C 386.87 537.62 387.06 546.25 387.00 555.00 C 386.94 563.75 387.05 573.19 387.00 582.00
C 392.26 575.72 386.29 561.60 388.00 553.00 C 389.71 544.40 387.22 532.39 388.00 523.00 C 388.78 513.61 387.64 502.77 388.00 493.00 C 388.36 483.23 387.82 472.99 388.00 463.00 C 388.18 453.01 387.86 442.08 388.00 432.00
C 391.52 448.36 385.49 468.29 392.00 484.00
C 396.01 485.43 395.45 481.83 397.00 480.00
C 397.03 489.31 402.50 477.65 407.00 480.00
C 408.05 468.19 408.19 456.12 408.00 444.00
C 410.99 457.59 407.01 474.48 410.00 488.00
C 410.00 475.63 411.36 462.27 410.00 450.00 C 408.64 437.73 416.90 433.34 425.70 427.70 C 434.49 422.05 439.27 416.14 448.00 411.00
C 448.00 463.00 448.00 515.00 448.00 567.00
C 447.00 567.11 445.27 566.53 445.00 568.00
C 453.09 565.74 448.01 550.52 449.00 542.00 C 449.99 533.48 448.58 520.37 449.00 511.00 C 449.42 501.63 448.91 490.74 449.00 481.00 C 449.09 471.26 448.97 460.60 450.00 451.00
C 452.94 456.92 449.05 466.15 452.00 472.00
C 453.67 469.34 452.98 465.19 454.00 462.00
C 456.13 464.43 454.47 468.82 455.00 472.00
C 460.31 470.87 463.78 475.31 466.00 479.00
C 466.00 474.00 466.00 469.00 466.00 464.00
C 468.47 467.57 468.35 468.20 470.00 464.00
C 472.79 468.69 469.16 475.72 472.00 480.00
C 472.00 464.00 472.00 448.00 472.00 432.00
C 469.43 421.57 471.98 408.17 471.00 397.00 C 470.02 385.83 473.38 371.66 469.00 363.00
C 468.03 378.55 470.88 397.11 467.00 415.00
C 468.08 410.77 465.62 408.29 465.00 405.00
C 460.84 413.04 451.79 395.90 443.00 400.00
C 438.42 391.95 446.11 392.09 448.00 385.00 Z"/>
</g>
<g fill="None" fill-opacity="0.0" stroke="#CEEFF9" stroke-opacity="1.00" stroke-width="0.3"><path d="
M 506.00 403.00 
C 506.12 402.74 506.79 402.30 507.00 402.00
C 521.70 381.14 539.50 366.16 566.00 365.00 C 592.50 363.84 616.19 374.75 631.00 397.00
C 637.25 406.39 642.56 417.34 643.00 429.00
C 643.78 434.46 643.77 440.61 643.00 446.00
C 642.14 468.46 627.51 487.33 614.23 504.23 C 600.95 521.13 587.96 536.03 575.00 553.00
C 585.86 542.88 594.29 531.84 604.10 520.10 C 613.91 508.36 621.43 495.79 631.25 483.25 C 641.06 470.70 645.34 455.87 645.00 437.00 C 644.66 418.13 641.57 404.85 629.00 391.00
C 629.76 388.90 630.92 387.71 631.00 386.00
C 629.05 381.73 628.32 387.97 627.00 389.00
C 626.13 383.70 619.37 380.46 615.25 377.75 C 611.12 375.05 603.03 372.91 604.00 368.00
C 593.69 364.64 576.50 361.89 564.00 363.00 C 551.50 364.11 536.46 368.73 528.23 376.23 C 520.00 383.73 507.08 391.45 506.00 403.00 Z"/>
</g>
<g fill="None" fill-opacity="0.0" stroke="#068ACA" stroke-opacity="1.00" stroke-width="0.3"><path d="
M 507.00 402.00 
C 509.74 403.23 501.39 415.80 503.00 419.00
C 505.83 419.68 507.55 416.29 508.00 414.00
C 508.53 420.75 517.45 420.14 520.00 426.00
C 524.32 425.63 528.40 425.40 529.00 430.00
C 529.43 425.63 531.92 421.75 531.00 417.00
C 534.55 421.10 530.71 412.44 534.00 411.00
C 540.57 410.58 544.36 403.10 551.68 400.68 C 559.00 398.26 568.21 394.26 577.00 396.00
C 574.39 398.77 568.54 395.19 566.00 398.00
C 574.79 397.40 582.35 398.47 590.00 402.00
C 594.44 403.11 599.73 407.95 605.00 408.00
C 600.35 413.55 610.95 415.25 609.00 422.00
C 611.20 415.95 612.68 426.28 613.00 429.00
C 614.67 424.76 616.87 423.15 615.00 429.00
C 623.50 430.21 627.69 422.78 635.00 420.00
C 635.96 417.00 630.59 411.15 636.00 415.00
C 637.59 408.19 630.14 402.48 631.00 397.00
C 616.19 374.75 592.50 363.84 566.00 365.00 C 539.50 366.16 521.70 381.14 507.00 402.00 Z"/>
</g>
<g fill="None" fill-opacity="0.0" stroke="#0774B9" stroke-opacity="1.00" stroke-width="0.3"><path d="
M 507.00 402.00 
C 506.79 402.30 506.12 402.74 506.00 403.00
C 506.00 403.00 506.17 403.57 506.00 404.00
C 501.51 415.43 498.95 423.20 498.00 436.00 C 497.05 448.80 501.26 459.35 504.00 471.00
C 504.00 471.00 503.84 471.56 504.00 472.00
C 510.25 479.80 514.86 489.74 521.00 498.00
C 528.13 505.64 534.11 514.25 541.00 522.00
C 545.04 526.54 553.50 536.61 557.30 540.70 C 561.11 544.78 570.89 559.44 575.00 554.00
C 575.00 554.00 574.76 553.32 575.00 553.00
C 587.96 536.03 600.95 521.13 614.23 504.23 C 627.51 487.33 642.14 468.46 643.00 446.00
C 643.21 440.39 643.21 434.61 643.00 429.00
C 642.56 417.34 637.25 406.39 631.00 397.00
C 630.14 402.48 637.59 408.19 636.00 415.00
C 630.59 411.15 635.96 417.00 635.00 420.00
C 627.69 422.78 623.50 430.21 615.00 429.00
C 616.87 423.15 614.67 424.76 613.00 429.00
C 612.68 426.28 611.20 415.95 609.00 422.00
C 610.95 415.25 600.35 413.55 605.00 408.00
C 599.73 407.95 594.44 403.11 590.00 402.00
C 601.28 407.22 607.72 418.72 611.00 430.00
C 612.36 434.67 612.14 440.40 611.00 445.00
C 608.62 454.62 604.36 463.68 596.00 470.00
C 595.05 470.72 593.93 471.34 593.00 472.00
C 568.30 489.57 536.13 472.69 530.00 445.00
C 529.04 440.69 529.06 436.25 530.00 432.00
C 530.68 428.93 530.97 426.37 533.00 424.00
C 533.09 423.52 533.00 423.00 533.00 423.00
C 536.23 409.24 552.92 398.89 566.00 398.00
C 568.54 395.19 574.39 398.77 577.00 396.00
C 568.21 394.26 559.00 398.26 551.68 400.68 C 544.36 403.10 540.57 410.58 534.00 411.00
C 530.71 412.44 534.55 421.10 531.00 417.00
C 531.92 421.75 529.43 425.63 529.00 430.00
C 528.40 425.40 524.32 425.63 520.00 426.00
C 517.45 420.14 508.53 420.75 508.00 414.00
C 507.55 416.29 505.83 419.68 503.00 419.00
C 501.39 415.80 509.74 403.23 507.00 402.00 Z"/>
</g>
<g fill="None" fill-opacity="0.0" stroke="#BEE9F5" stroke-opacity="1.00" stroke-width="0.3"><path d="
M 533.00 423.00 
C 543.29 412.44 553.38 396.03 571.00 399.00 C 588.62 401.97 600.08 408.12 607.25 422.75 C 614.42 437.39 607.29 459.64 596.00 470.00
C 604.36 463.68 608.62 454.62 611.00 445.00
C 611.55 440.60 611.70 434.37 611.00 430.00
C 607.72 418.72 601.28 407.22 590.00 402.00
C 582.35 398.47 574.79 397.40 566.00 398.00
C 552.92 398.89 536.23 409.24 533.00 423.00 Z"/>
</g>
<g fill="None" fill-opacity="0.0" stroke="#F7F8F7" stroke-opacity="1.00" stroke-width="0.3"><path d="
M 533.00 423.00 
C 533.00 423.00 533.09 423.52 533.00 424.00
C 529.79 441.18 531.66 456.44 544.25 467.75 C 556.85 479.05 578.27 479.87 593.00 472.00
C 593.93 471.34 595.05 470.72 596.00 470.00
C 607.29 459.64 614.42 437.39 607.25 422.75 C 600.08 408.12 588.62 401.97 571.00 399.00 C 553.38 396.03 543.29 412.44 533.00 423.00 Z"/>
</g>
<g fill="None" fill-opacity="0.0" stroke="#B9E0EE" stroke-opacity="1.00" stroke-width="0.3"><path d="
M 504.00 471.00 
C 501.26 459.35 497.05 448.80 498.00 436.00 C 498.95 423.20 501.51 415.43 506.00 404.00
C 499.93 406.48 498.19 417.64 497.00 424.00 C 495.81 430.36 497.35 444.86 497.00 452.00 C 496.65 459.14 499.66 465.59 504.00 471.00 Z"/>
</g>
<g fill="None" fill-opacity="0.0" stroke="#C5EAF9" stroke-opacity="1.00" stroke-width="0.3"><path d="
M 410.00 488.00 
C 410.00 493.33 410.00 498.67 410.00 504.00
C 410.00 503.96 411.00 504.00 411.00 504.00
C 411.00 482.67 411.00 461.33 411.00 440.00
C 423.21 432.64 434.99 421.49 447.00 414.00
C 447.12 425.91 446.84 437.01 447.00 449.00 C 447.16 460.99 446.69 472.84 447.00 485.00 C 447.31 497.16 446.34 508.56 447.00 521.00 C 447.66 533.44 445.55 543.99 447.00 557.00 C 448.45 570.01 432.71 565.28 425.00 571.00
C 430.56 571.37 439.60 569.51 445.00 568.00
C 445.27 566.53 447.00 567.11 448.00 567.00
C 448.00 515.00 448.00 463.00 448.00 411.00
C 439.27 416.14 434.49 422.05 425.70 427.70 C 416.90 433.34 408.64 437.73 410.00 450.00 C 411.36 462.27 410.00 475.63 410.00 488.00 Z"/>
</g>
<g fill="None" fill-opacity="0.0" stroke="#F8F9F9" stroke-opacity="1.00" stroke-width="0.3"><path d="
M 411.00 504.00 
C 411.00 512.67 411.00 521.33 411.00 530.00
C 411.90 539.29 412.00 550.00 412.00 560.00
C 412.00 564.00 412.00 568.00 412.00 572.00
C 414.58 570.18 420.84 571.00 424.00 571.00
C 424.50 571.00 425.00 571.00 425.00 571.00
C 432.71 565.28 448.45 570.01 447.00 557.00 C 445.55 543.99 447.66 533.44 447.00 521.00 C 446.34 508.56 447.31 497.16 447.00 485.00 C 446.69 472.84 447.16 460.99 447.00 449.00 C 446.84 437.01 447.12 425.91 447.00 414.00
C 434.99 421.49 423.21 432.64 411.00 440.00
C 411.00 461.33 411.00 482.67 411.00 504.00 Z"/>
</g>
<g fill="None" fill-opacity="0.0" stroke="#C9ECF8" stroke-opacity="1.00" stroke-width="0.3"><path d="
M 530.00 432.00 
C 529.59 436.03 529.59 440.97 530.00 445.00
C 536.13 472.69 568.30 489.57 593.00 472.00
C 578.27 479.87 556.85 479.05 544.25 467.75 C 531.66 456.44 529.79 441.18 533.00 424.00
C 530.97 426.37 530.68 428.93 530.00 432.00 Z"/>
</g>
<g fill="None" fill-opacity="0.0" stroke="#D2F4FE" stroke-opacity="1.00" stroke-width="0.3"><path d="
M 375.00 586.00 
C 377.77 584.89 385.07 584.30 387.00 582.00
C 387.05 573.19 386.94 563.75 387.00 555.00 C 387.06 546.25 386.87 537.62 387.00 529.00 C 387.13 520.38 386.72 511.45 387.00 503.00 C 387.28 494.55 386.41 484.06 387.00 476.00 C 387.59 467.94 385.65 457.07 387.00 450.00 C 388.35 442.93 383.06 430.17 389.00 426.00
C 387.01 426.51 386.35 428.96 385.00 430.00
C 387.14 440.71 385.57 451.76 386.00 463.00 C 386.43 474.24 385.54 485.61 386.00 497.00 C 386.46 508.39 385.20 518.30 386.00 530.00 C 386.80 541.70 384.37 551.67 386.00 564.00 C 387.63 576.33 383.91 579.82 375.00 586.00 Z"/>
</g>
<g fill="None" fill-opacity="0.0" stroke="#61A7CA" stroke-opacity="1.00" stroke-width="0.3"><path d="
M 643.00 446.00 
C 643.77 440.61 643.78 434.46 643.00 429.00
C 643.21 434.61 643.21 440.39 643.00 446.00 Z"/>
</g>
<g fill="None" fill-opacity="0.0" stroke="#4191AE" stroke-opacity="1.00" stroke-width="0.3"><path d="
M 611.00 445.00 
C 612.14 440.40 612.36 434.67 611.00 430.00
C 611.70 434.37 611.55 440.60 611.00 445.00 Z"/>
</g>
<g fill="None" fill-opacity="0.0" stroke="#076AAF" stroke-opacity="1.00" stroke-width="0.3"><path d="
M 387.00 582.00 
C 385.07 584.30 377.77 584.89 375.00 586.00
C 368.71 588.53 367.97 589.28 361.23 592.23 C 354.49 595.18 358.40 600.22 365.33 598.33 C 372.26 596.44 377.06 597.00 384.00 597.00
C 403.71 595.09 424.42 592.00 445.00 592.00
C 449.33 592.00 453.67 592.00 458.00 592.00
C 464.68 591.35 472.63 591.00 480.00 591.00
C 504.00 591.00 528.00 591.00 552.00 591.00
C 556.08 591.00 560.66 591.68 564.00 592.00
C 568.00 592.00 572.00 592.00 576.00 592.00
C 580.74 592.00 586.01 592.61 590.00 593.00
C 610.33 593.03 629.72 596.81 650.00 597.00
C 646.38 586.62 632.29 585.80 622.22 581.78 C 612.16 577.75 600.69 574.51 589.67 572.33 C 578.66 570.14 565.42 566.91 554.00 566.00
C 545.46 565.32 536.00 564.97 528.00 564.00
C 525.68 563.95 522.61 564.61 521.00 563.00
C 517.28 559.28 520.71 549.75 520.00 544.00 C 519.29 538.25 519.65 530.55 520.00 524.00 C 520.35 517.45 519.79 512.34 516.00 507.00
C 515.10 505.73 514.68 504.22 514.00 503.00
C 508.96 496.15 503.54 490.29 499.00 483.00
C 499.00 483.00 499.16 482.44 499.00 482.00
C 497.32 480.58 496.40 492.11 497.00 497.00 C 497.60 501.89 496.53 510.97 497.00 517.00 C 497.47 523.03 496.36 528.98 497.00 536.00 C 497.64 543.02 495.80 547.81 497.00 556.00 C 498.20 564.19 492.46 564.00 485.00 564.00
C 482.00 564.00 479.00 564.00 476.00 564.00
C 476.00 564.00 475.49 563.94 475.00 564.00
C 474.00 564.00 473.00 564.00 472.00 564.00
C 472.00 536.00 472.00 508.00 472.00 480.00
C 469.16 475.72 472.79 468.69 470.00 464.00
C 468.35 468.20 468.47 467.57 466.00 464.00
C 466.00 469.00 466.00 474.00 466.00 479.00
C 463.78 475.31 460.31 470.87 455.00 472.00
C 454.47 468.82 456.13 464.43 454.00 462.00
C 452.98 465.19 453.67 469.34 452.00 472.00
C 449.05 466.15 452.94 456.92 450.00 451.00
C 448.97 460.60 449.09 471.26 449.00 481.00 C 448.91 490.74 449.42 501.63 449.00 511.00 C 448.58 520.37 449.99 533.48 449.00 542.00 C 448.01 550.52 453.09 565.74 445.00 568.00
C 439.60 569.51 430.56 571.37 425.00 571.00
C 425.00 571.00 424.50 571.00 424.00 571.00
C 421.90 572.15 414.69 574.93 412.00 574.00
C 409.81 573.37 411.00 562.16 411.00 560.00
C 411.00 552.00 411.00 544.00 411.00 536.00
C 410.04 526.05 410.00 514.65 410.00 504.00
C 410.00 498.67 410.00 493.33 410.00 488.00
C 407.01 474.48 410.99 457.59 408.00 444.00
C 408.19 456.12 408.05 468.19 407.00 480.00
C 402.50 477.65 397.03 489.31 397.00 480.00
C 395.45 481.83 396.01 485.43 392.00 484.00
C 385.49 468.29 391.52 448.36 388.00 432.00
C 387.86 442.08 388.18 453.01 388.00 463.00 C 387.82 472.99 388.36 483.23 388.00 493.00 C 387.64 502.77 388.78 513.61 388.00 523.00 C 387.22 532.39 389.71 544.40 388.00 553.00 C 386.29 561.60 392.26 575.72 387.00 582.00 Z"/>
</g>
<g fill="None" fill-opacity="0.0" stroke="#57A2C6" stroke-opacity="1.00" stroke-width="0.3"><path d="
M 530.00 445.00 
C 529.59 440.97 529.59 436.03 530.00 432.00
C 529.06 436.25 529.04 440.69 530.00 445.00 Z"/>
</g>
<g fill="None" fill-opacity="0.0" stroke="#CDE9F4" stroke-opacity="1.00" stroke-width="0.3"><path d="
M 521.00 498.00 
C 514.86 489.74 510.25 479.80 504.00 472.00
C 505.23 477.66 504.35 479.90 506.00 484.00
C 508.74 478.45 509.67 486.33 512.23 488.77 C 514.79 491.21 518.39 495.20 521.00 498.00 Z"/>
</g>
<g fill="None" fill-opacity="0.0" stroke="#E4FAFE" stroke-opacity="1.00" stroke-width="0.3"><path d="
M 476.00 564.00 
C 479.00 564.00 482.00 564.00 485.00 564.00
C 487.94 563.72 492.35 562.14 496.00 563.00
C 496.09 555.82 495.88 548.12 496.00 541.00 C 496.12 533.88 495.77 525.93 496.00 519.00 C 496.23 512.07 495.51 503.47 496.00 497.00 C 496.49 490.53 494.01 480.81 498.00 479.00
C 495.68 474.77 494.35 489.98 495.00 495.00 C 495.65 500.02 495.14 512.30 495.00 518.00 C 494.86 523.70 496.15 534.82 495.00 540.00 C 493.85 545.18 498.38 559.09 493.67 561.67 C 488.96 564.25 481.31 561.10 476.00 564.00 Z"/>
</g>
<g fill="None" fill-opacity="0.0" stroke="#70AACE" stroke-opacity="1.00" stroke-width="0.3"><path d="
M 485.00 564.00 
C 492.46 564.00 498.20 564.19 497.00 556.00 C 495.80 547.81 497.64 543.02 497.00 536.00 C 496.36 528.98 497.47 523.03 497.00 517.00 C 496.53 510.97 497.60 501.89 497.00 497.00 C 496.40 492.11 497.32 480.58 499.00 482.00
C 498.71 481.21 498.35 479.63 498.00 479.00
C 494.01 480.81 496.49 490.53 496.00 497.00 C 495.51 503.47 496.23 512.07 496.00 519.00 C 495.77 525.93 496.12 533.88 496.00 541.00 C 495.88 548.12 496.09 555.82 496.00 563.00
C 492.35 562.14 487.94 563.72 485.00 564.00 Z"/>
</g>
<g fill="None" fill-opacity="0.0" stroke="#C2E1EF" stroke-opacity="1.00" stroke-width="0.3"><path d="
M 514.00 503.00 
C 509.88 495.58 506.10 487.96 499.00 483.00
C 503.54 490.29 508.96 496.15 514.00 503.00 Z"/>
</g>
<g fill="None" fill-opacity="0.0" stroke="#79ACC8" stroke-opacity="1.00" stroke-width="0.3"><path d="
M 411.00 536.00 
C 411.00 534.00 411.00 532.00 411.00 530.00
C 411.00 521.33 411.00 512.67 411.00 504.00
C 411.00 504.00 410.00 503.96 410.00 504.00
C 410.00 514.65 410.04 526.05 411.00 536.00 Z"/>
</g>
<g fill="None" fill-opacity="0.0" stroke="#84B1C9" stroke-opacity="1.00" stroke-width="0.3"><path d="
M 521.00 563.00 
C 517.82 558.46 522.15 547.88 521.00 542.00 C 519.85 536.12 520.64 528.72 521.00 522.00 C 521.36 515.28 520.20 511.99 516.00 507.00
C 519.79 512.34 520.35 517.45 520.00 524.00 C 519.65 530.55 519.29 538.25 520.00 544.00 C 520.71 549.75 517.28 559.28 521.00 563.00 Z"/>
</g>
<g fill="None" fill-opacity="0.0" stroke="#CDECF6" stroke-opacity="1.00" stroke-width="0.3"><path d="
M 575.00 554.00 
C 570.89 559.44 561.11 544.78 557.30 540.70 C 553.50 536.61 545.04 526.54 541.00 522.00
C 543.35 527.87 550.74 534.62 555.25 540.75 C 559.76 546.88 566.73 553.15 573.00 557.00
C 573.26 555.74 574.58 555.21 575.00 554.00 Z"/>
</g>
<g fill="None" fill-opacity="0.0" stroke="#C7EEFC" stroke-opacity="1.00" stroke-width="0.3"><path d="
M 411.00 536.00 
C 411.00 544.00 411.00 552.00 411.00 560.00
C 411.00 559.96 412.00 560.00 412.00 560.00
C 412.00 550.00 411.90 539.29 411.00 530.00
C 411.00 532.00 411.00 534.00 411.00 536.00 Z"/>
</g>
<g fill="None" fill-opacity="0.0" stroke="#86BADD" stroke-opacity="1.00" stroke-width="0.3"><path d="
M 412.00 574.00 
C 411.85 573.95 412.00 572.50 412.00 572.00
C 412.00 568.00 412.00 564.00 412.00 560.00
C 412.00 560.00 411.00 559.96 411.00 560.00
C 411.00 562.16 409.81 573.37 412.00 574.00 Z"/>
</g>
<g fill="None" fill-opacity="0.0" stroke="#ADD7EC" stroke-opacity="1.00" stroke-width="0.3"><path d="
M 554.00 566.00 
C 545.87 563.99 537.10 564.18 528.00 564.00
C 536.00 564.97 545.46 565.32 554.00 566.00 Z"/>
</g>
<g fill="None" fill-opacity="0.0" stroke="#C9E8F8" stroke-opacity="1.00" stroke-width="0.3"><path d="
M 412.00 572.00 
C 412.00 572.50 411.85 573.95 412.00 574.00
C 414.69 574.93 421.90 572.15 424.00 571.00
C 420.84 571.00 414.58 570.18 412.00 572.00 Z"/>
</g>
<g fill="None" fill-opacity="0.0" stroke="#91C6E8" stroke-opacity="1.00" stroke-width="0.3"><path d="
M 458.00 592.00 
C 465.33 592.00 472.67 592.00 480.00 592.00
C 479.96 592.00 480.00 591.00 480.00 591.00
C 472.63 591.00 464.68 591.35 458.00 592.00 Z"/>
</g>
<g fill="None" fill-opacity="0.0" stroke="#D2F3FD" stroke-opacity="1.00" stroke-width="0.3"><path d="
M 480.00 592.00 
C 504.00 592.00 528.00 592.00 552.00 592.00
C 551.96 592.00 552.00 591.00 552.00 591.00
C 528.00 591.00 504.00 591.00 480.00 591.00
C 480.00 591.00 479.96 592.00 480.00 592.00 Z"/>
</g>
<g fill="None" fill-opacity="0.0" stroke="#6AA1C6" stroke-opacity="1.00" stroke-width="0.3"><path d="
M 552.00 592.00 
C 556.00 592.00 560.00 592.00 564.00 592.00
C 560.66 591.68 556.08 591.00 552.00 591.00
C 552.00 591.00 551.96 592.00 552.00 592.00 Z"/>
</g>
<g fill="None" fill-opacity="0.0" stroke="#C9E4F2" stroke-opacity="1.00" stroke-width="0.3"><path d="
M 384.00 597.00 
C 404.71 597.00 425.66 593.87 445.00 592.00
C 424.42 592.00 403.71 595.09 384.00 597.00 Z"/>
</g>
<g fill="None" fill-opacity="0.0" stroke="#6FA0BC" stroke-opacity="1.00" stroke-width="0.3"><path d="
M 590.00 593.00 
C 586.01 592.61 580.74 592.00 576.00 592.00
C 579.99 592.39 585.26 593.00 590.00 593.00 Z"/>
</g>
<g fill="#F8F8F8" fill-opacity="1.00" stroke="None">
<path d="
M 0.00 1024.00 
L 1024.00 1024.00
L 1024.00 0.00
L 0.00 0.00
L 0.00 1024.00
M 533.00 364.00 
C 532.53 364.11 532.00 364.00 532.00 364.00
C 525.98 370.29 515.62 378.36 517.00 365.00 C 518.38 351.64 515.96 342.94 517.00 330.00
C 510.03 329.13 506.00 335.90 500.00 338.00
C 499.56 338.16 499.00 338.00 499.00 338.00
C 496.98 340.16 496.38 342.84 495.00 345.00
C 487.74 345.20 485.21 351.51 477.77 355.77 C 470.32 360.02 473.28 372.76 473.00 382.00 C 472.72 391.24 473.10 402.22 473.00 412.00 C 472.90 421.78 473.01 432.98 473.00 443.00 C 472.99 453.02 472.93 463.94 473.00 474.00 C 473.07 484.06 472.79 493.98 473.00 504.00 C 473.21 514.02 472.53 525.12 473.00 535.00 C 473.47 544.88 471.05 555.96 475.00 564.00
C 475.49 563.94 476.00 564.00 476.00 564.00
C 481.31 561.10 488.96 564.25 493.67 561.67 C 498.38 559.09 493.85 545.18 495.00 540.00 C 496.15 534.82 494.86 523.70 495.00 518.00 C 495.14 512.30 495.65 500.02 495.00 495.00 C 494.35 489.98 495.68 474.77 498.00 479.00
C 498.35 479.63 498.71 481.21 499.00 482.00
C 499.16 482.44 499.00 483.00 499.00 483.00
C 506.10 487.96 509.88 495.58 514.00 503.00
C 514.68 504.22 515.10 505.73 516.00 507.00
C 520.20 511.99 521.36 515.28 521.00 522.00 C 520.64 528.72 519.85 536.12 521.00 542.00 C 522.15 547.88 517.82 558.46 521.00 563.00
C 522.61 564.61 525.68 563.95 528.00 564.00
C 537.10 564.18 545.87 563.99 554.00 566.00
C 565.42 566.91 578.66 570.14 589.67 572.33 C 600.69 574.51 612.16 577.75 622.22 581.78 C 632.29 585.80 646.38 586.62 650.00 597.00
C 629.72 596.81 610.33 593.03 590.00 593.00
C 585.26 593.00 579.99 592.39 576.00 592.00
C 572.00 592.00 568.00 592.00 564.00 592.00
C 560.00 592.00 556.00 592.00 552.00 592.00
C 528.00 592.00 504.00 592.00 480.00 592.00
C 472.67 592.00 465.33 592.00 458.00 592.00
C 453.67 592.00 449.33 592.00 445.00 592.00
C 425.66 593.87 404.71 597.00 384.00 597.00
C 377.06 597.00 372.26 596.44 365.33 598.33 C 358.40 600.22 354.49 595.18 361.23 592.23 C 367.97 589.28 368.71 588.53 375.00 586.00
C 383.91 579.82 387.63 576.33 386.00 564.00 C 384.37 551.67 386.80 541.70 386.00 530.00 C 385.20 518.30 386.46 508.39 386.00 497.00 C 385.54 485.61 386.43 474.24 386.00 463.00 C 385.57 451.76 387.14 440.71 385.00 430.00
C 386.35 428.96 387.01 426.51 389.00 426.00
C 389.42 425.81 390.00 426.00 390.00 426.00
C 396.47 419.25 404.43 413.60 412.23 408.23 C 420.03 402.86 427.10 396.33 434.00 393.00
C 434.43 389.61 434.77 387.64 437.00 385.00
C 437.16 388.58 442.62 387.41 439.00 385.00
C 452.02 384.35 446.83 364.49 447.00 354.00 C 447.17 343.51 457.01 338.83 465.25 333.25 C 473.48 327.66 479.41 322.57 486.30 317.30 C 493.19 312.02 502.13 309.10 507.00 301.00
C 512.95 304.15 520.00 292.85 523.75 290.75 C 527.50 288.66 539.36 277.43 540.97 285.03 C 542.58 292.63 540.36 305.52 541.00 314.00 C 541.64 322.48 540.86 334.44 541.00 343.00 C 541.14 351.56 543.98 363.31 533.00 364.00
M 575.00 553.00 
C 574.76 553.32 575.00 554.00 575.00 554.00
C 574.58 555.21 573.26 555.74 573.00 557.00
C 566.73 553.15 559.76 546.88 555.25 540.75 C 550.74 534.62 543.35 527.87 541.00 522.00
C 534.11 514.25 528.13 505.64 521.00 498.00
C 518.39 495.20 514.79 491.21 512.23 488.77 C 509.67 486.33 508.74 478.45 506.00 484.00
C 504.35 479.90 505.23 477.66 504.00 472.00
C 503.84 471.56 504.00 471.00 504.00 471.00
C 499.66 465.59 496.65 459.14 497.00 452.00 C 497.35 444.86 495.81 430.36 497.00 424.00 C 498.19 417.64 499.93 406.48 506.00 404.00
C 506.17 403.57 506.00 403.00 506.00 403.00
C 507.08 391.45 520.00 383.73 528.23 376.23 C 536.46 368.73 551.50 364.11 564.00 363.00 C 576.50 361.89 593.69 364.64 604.00 368.00
C 603.03 372.91 611.12 375.05 615.25 377.75 C 619.37 380.46 626.13 383.70 627.00 389.00
C 628.32 387.97 629.05 381.73 631.00 386.00
C 630.92 387.71 629.76 388.90 629.00 391.00
C 641.57 404.85 644.66 418.13 645.00 437.00 C 645.34 455.87 641.06 470.70 631.25 483.25 C 621.43 495.79 613.91 508.36 604.10 520.10 C 594.29 531.84 585.86 542.88 575.00 553.00 Z"/>
</g>
<g fill="#C6EDF8" fill-opacity="1.00" stroke="None">
<path d="
M 390.00 426.00 
C 395.28 424.09 399.38 419.01 404.08 416.08 C 408.79 413.15 414.44 409.08 418.70 405.70 C 422.96 402.32 429.85 399.15 433.23 395.23 C 436.61 391.31 446.11 389.14 448.00 385.00
C 451.23 372.90 442.50 350.01 454.08 343.08 C 465.66 336.16 472.59 329.83 483.08 323.08 C 493.58 316.33 500.60 309.23 510.75 302.75 C 520.89 296.26 529.24 288.01 540.00 283.00
C 539.03 296.70 541.29 313.62 540.00 327.00 C 538.71 340.38 545.45 357.36 533.00 364.00
C 543.98 363.31 541.14 351.56 541.00 343.00 C 540.86 334.44 541.64 322.48 541.00 314.00 C 540.36 305.52 542.58 292.63 540.97 285.03 C 539.36 277.43 527.50 288.66 523.75 290.75 C 520.00 292.85 512.95 304.15 507.00 301.00
C 502.13 309.10 493.19 312.02 486.30 317.30 C 479.41 322.57 473.48 327.66 465.25 333.25 C 457.01 338.83 447.17 343.51 447.00 354.00 C 446.83 364.49 452.02 384.35 439.00 385.00
C 442.62 387.41 437.16 388.58 437.00 385.00
C 434.77 387.64 434.43 389.61 434.00 393.00
C 427.10 396.33 420.03 402.86 412.23 408.23 C 404.43 413.60 396.47 419.25 390.00 426.00 Z"/>
</g>
<g fill="#0C8FCA" fill-opacity="1.00" stroke="None">
<path d="
M 448.00 385.00 
C 446.11 392.09 438.42 391.95 443.00 400.00
C 451.79 395.90 460.84 413.04 465.00 405.00
C 465.62 408.29 468.08 410.77 467.00 415.00
C 470.88 397.11 468.03 378.55 469.00 363.00
C 473.38 371.66 470.02 385.83 471.00 397.00 C 471.98 408.17 469.43 421.57 472.00 432.00
C 472.00 412.27 473.63 391.64 472.00 372.00 C 470.37 352.36 485.31 348.45 499.00 338.00
C 499.00 338.00 499.56 338.16 500.00 338.00
C 504.26 331.91 512.14 328.73 518.00 325.00
C 518.00 341.00 518.00 357.00 518.00 373.00
C 522.74 370.02 527.05 366.56 532.00 364.00
C 532.00 364.00 532.53 364.11 533.00 364.00
C 545.45 357.36 538.71 340.38 540.00 327.00 C 541.29 313.62 539.03 296.70 540.00 283.00
C 529.24 288.01 520.89 296.26 510.75 302.75 C 500.60 309.23 493.58 316.33 483.08 323.08 C 472.59 329.83 465.66 336.16 454.08 343.08 C 442.50 350.01 451.23 372.90 448.00 385.00 Z"/>
</g>
<g fill="#B7E3F1" fill-opacity="1.00" stroke="None">
<path d="
M 500.00 338.00 
C 506.00 335.90 510.03 329.13 517.00 330.00
C 515.96 342.94 518.38 351.64 517.00 365.00 C 515.62 378.36 525.98 370.29 532.00 364.00
C 527.05 366.56 522.74 370.02 518.00 373.00
C 518.00 357.00 518.00 341.00 518.00 325.00
C 512.14 328.73 504.26 331.91 500.00 338.00 Z"/>
</g>
<g fill="#BEE5F5" fill-opacity="1.00" stroke="None">
<path d="
M 472.00 432.00 
C 472.00 448.00 472.00 464.00 472.00 480.00
C 472.00 508.00 472.00 536.00 472.00 564.00
C 473.00 564.00 474.00 564.00 475.00 564.00
C 471.05 555.96 473.47 544.88 473.00 535.00 C 472.53 525.12 473.21 514.02 473.00 504.00 C 472.79 493.98 473.07 484.06 473.00 474.00 C 472.93 463.94 472.99 453.02 473.00 443.00 C 473.01 432.98 472.90 421.78 473.00 412.00 C 473.10 402.22 472.72 391.24 473.00 382.00 C 473.28 372.76 470.32 360.02 477.77 355.77 C 485.21 351.51 487.74 345.20 495.00 345.00
C 496.38 342.84 496.98 340.16 499.00 338.00
C 485.31 348.45 470.37 352.36 472.00 372.00 C 473.63 391.64 472.00 412.27 472.00 432.00 Z"/>
</g>
<g fill="#1081C0" fill-opacity="1.00" stroke="None">
<path d="
M 448.00 385.00 
C 446.11 389.14 436.61 391.31 433.23 395.23 C 429.85 399.15 422.96 402.32 418.70 405.70 C 414.44 409.08 408.79 413.15 404.08 416.08 C 399.38 419.01 395.28 424.09 390.00 426.00
C 390.00 426.00 389.42 425.81 389.00 426.00
C 383.06 430.17 388.35 442.93 387.00 450.00 C 385.65 457.07 387.59 467.94 387.00 476.00 C 386.41 484.06 387.28 494.55 387.00 503.00 C 386.72 511.45 387.13 520.38 387.00 529.00 C 386.87 537.62 387.06 546.25 387.00 555.00 C 386.94 563.75 387.05 573.19 387.00 582.00
C 392.26 575.72 386.29 561.60 388.00 553.00 C 389.71 544.40 387.22 532.39 388.00 523.00 C 388.78 513.61 387.64 502.77 388.00 493.00 C 388.36 483.23 387.82 472.99 388.00 463.00 C 388.18 453.01 387.86 442.08 388.00 432.00
C 391.52 448.36 385.49 468.29 392.00 484.00
C 396.01 485.43 395.45 481.83 397.00 480.00
C 397.03 489.31 402.50 477.65 407.00 480.00
C 408.05 468.19 408.19 456.12 408.00 444.00
C 410.99 457.59 407.01 474.48 410.00 488.00
C 410.00 475.63 411.36 462.27 410.00 450.00 C 408.64 437.73 416.90 433.34 425.70 427.70 C 434.49 422.05 439.27 416.14 448.00 411.00
C 448.00 463.00 448.00 515.00 448.00 567.00
C 447.00 567.11 445.27 566.53 445.00 568.00
C 453.09 565.74 448.01 550.52 449.00 542.00 C 449.99 533.48 448.58 520.37 449.00 511.00 C 449.42 501.63 448.91 490.74 449.00 481.00 C 449.09 471.26 448.97 460.60 450.00 451.00
C 452.94 456.92 449.05 466.15 452.00 472.00
C 453.67 469.34 452.98 465.19 454.00 462.00
C 456.13 464.43 454.47 468.82 455.00 472.00
C 460.31 470.87 463.78 475.31 466.00 479.00
C 466.00 474.00 466.00 469.00 466.00 464.00
C 468.47 467.57 468.35 468.20 470.00 464.00
C 472.79 468.69 469.16 475.72 472.00 480.00
C 472.00 464.00 472.00 448.00 472.00 432.00
C 469.43 421.57 471.98 408.17 471.00 397.00 C 470.02 385.83 473.38 371.66 469.00 363.00
C 468.03 378.55 470.88 397.11 467.00 415.00
C 468.08 410.77 465.62 408.29 465.00 405.00
C 460.84 413.04 451.79 395.90 443.00 400.00
C 438.42 391.95 446.11 392.09 448.00 385.00 Z"/>
</g>
<g fill="#CEEFF9" fill-opacity="1.00" stroke="None">
<path d="
M 506.00 403.00 
C 506.12 402.74 506.79 402.30 507.00 402.00
C 521.70 381.14 539.50 366.16 566.00 365.00 C 592.50 363.84 616.19 374.75 631.00 397.00
C 637.25 406.39 642.56 417.34 643.00 429.00
C 643.78 434.46 643.77 440.61 643.00 446.00
C 642.14 468.46 627.51 487.33 614.23 504.23 C 600.95 521.13 587.96 536.03 575.00 553.00
C 585.86 542.88 594.29 531.84 604.10 520.10 C 613.91 508.36 621.43 495.79 631.25 483.25 C 641.06 470.70 645.34 455.87 645.00 437.00 C 644.66 418.13 641.57 404.85 629.00 391.00
C 629.76 388.90 630.92 387.71 631.00 386.00
C 629.05 381.73 628.32 387.97 627.00 389.00
C 626.13 383.70 619.37 380.46 615.25 377.75 C 611.12 375.05 603.03 372.91 604.00 368.00
C 593.69 364.64 576.50 361.89 564.00 363.00 C 551.50 364.11 536.46 368.73 528.23 376.23 C 520.00 383.73 507.08 391.45 506.00 403.00 Z"/>
</g>
<g fill="#068ACA" fill-opacity="1.00" stroke="None">
<path d="
M 507.00 402.00 
C 509.74 403.23 501.39 415.80 503.00 419.00
C 505.83 419.68 507.55 416.29 508.00 414.00
C 508.53 420.75 517.45 420.14 520.00 426.00
C 524.32 425.63 528.40 425.40 529.00 430.00
C 529.43 425.63 531.92 421.75 531.00 417.00
C 534.55 421.10 530.71 412.44 534.00 411.00
C 540.57 410.58 544.36 403.10 551.68 400.68 C 559.00 398.26 568.21 394.26 577.00 396.00
C 574.39 398.77 568.54 395.19 566.00 398.00
C 574.79 397.40 582.35 398.47 590.00 402.00
C 594.44 403.11 599.73 407.95 605.00 408.00
C 600.35 413.55 610.95 415.25 609.00 422.00
C 611.20 415.95 612.68 426.28 613.00 429.00
C 614.67 424.76 616.87 423.15 615.00 429.00
C 623.50 430.21 627.69 422.78 635.00 420.00
C 635.96 417.00 630.59 411.15 636.00 415.00
C 637.59 408.19 630.14 402.48 631.00 397.00
C 616.19 374.75 592.50 363.84 566.00 365.00 C 539.50 366.16 521.70 381.14 507.00 402.00 Z"/>
</g>
<g fill="#0774B9" fill-opacity="1.00" stroke="None">
<path d="
M 507.00 402.00 
C 506.79 402.30 506.12 402.74 506.00 403.00
C 506.00 403.00 506.17 403.57 506.00 404.00
C 501.51 415.43 498.95 423.20 498.00 436.00 C 497.05 448.80 501.26 459.35 504.00 471.00
C 504.00 471.00 503.84 471.56 504.00 472.00
C 510.25 479.80 514.86 489.74 521.00 498.00
C 528.13 505.64 534.11 514.25 541.00 522.00
C 545.04 526.54 553.50 536.61 557.30 540.70 C 561.11 544.78 570.89 559.44 575.00 554.00
C 575.00 554.00 574.76 553.32 575.00 553.00
C 587.96 536.03 600.95 521.13 614.23 504.23 C 627.51 487.33 642.14 468.46 643.00 446.00
C 643.21 440.39 643.21 434.61 643.00 429.00
C 642.56 417.34 637.25 406.39 631.00 397.00
C 630.14 402.48 637.59 408.19 636.00 415.00
C 630.59 411.15 635.96 417.00 635.00 420.00
C 627.69 422.78 623.50 430.21 615.00 429.00
C 616.87 423.15 614.67 424.76 613.00 429.00
C 612.68 426.28 611.20 415.95 609.00 422.00
C 610.95 415.25 600.35 413.55 605.00 408.00
C 599.73 407.95 594.44 403.11 590.00 402.00
C 601.28 407.22 607.72 418.72 611.00 430.00
C 612.36 434.67 612.14 440.40 611.00 445.00
C 608.62 454.62 604.36 463.68 596.00 470.00
C 595.05 470.72 593.93 471.34 593.00 472.00
C 568.30 489.57 536.13 472.69 530.00 445.00
C 529.04 440.69 529.06 436.25 530.00 432.00
C 530.68 428.93 530.97 426.37 533.00 424.00
C 533.09 423.52 533.00 423.00 533.00 423.00
C 536.23 409.24 552.92 398.89 566.00 398.00
C 568.54 395.19 574.39 398.77 577.00 396.00
C 568.21 394.26 559.00 398.26 551.68 400.68 C 544.36 403.10 540.57 410.58 534.00 411.00
C 530.71 412.44 534.55 421.10 531.00 417.00
C 531.92 421.75 529.43 425.63 529.00 430.00
C 528.40 425.40 524.32 425.63 520.00 426.00
C 517.45 420.14 508.53 420.75 508.00 414.00
C 507.55 416.29 505.83 419.68 503.00 419.00
C 501.39 415.80 509.74 403.23 507.00 402.00 Z"/>
</g>
<g fill="#BEE9F5" fill-opacity="1.00" stroke="None">
<path d="
M 533.00 423.00 
C 543.29 412.44 553.38 396.03 571.00 399.00 C 588.62 401.97 600.08 408.12 607.25 422.75 C 614.42 437.39 607.29 459.64 596.00 470.00
C 604.36 463.68 608.62 454.62 611.00 445.00
C 611.55 440.60 611.70 434.37 611.00 430.00
C 607.72 418.72 601.28 407.22 590.00 402.00
C 582.35 398.47 574.79 397.40 566.00 398.00
C 552.92 398.89 536.23 409.24 533.00 423.00 Z"/>
</g>
<g fill="#F7F8F7" fill-opacity="1.00" stroke="None">
<path d="
M 533.00 423.00 
C 533.00 423.00 533.09 423.52 533.00 424.00
C 529.79 441.18 531.66 456.44 544.25 467.75 C 556.85 479.05 578.27 479.87 593.00 472.00
C 593.93 471.34 595.05 470.72 596.00 470.00
C 607.29 459.64 614.42 437.39 607.25 422.75 C 600.08 408.12 588.62 401.97 571.00 399.00 C 553.38 396.03 543.29 412.44 533.00 423.00 Z"/>
</g>
<g fill="#B9E0EE" fill-opacity="1.00" stroke="None">
<path d="
M 504.00 471.00 
C 501.26 459.35 497.05 448.80 498.00 436.00 C 498.95 423.20 501.51 415.43 506.00 404.00
C 499.93 406.48 498.19 417.64 497.00 424.00 C 495.81 430.36 497.35 444.86 497.00 452.00 C 496.65 459.14 499.66 465.59 504.00 471.00 Z"/>
</g>
<g fill="#C5EAF9" fill-opacity="1.00" stroke="None">
<path d="
M 410.00 488.00 
C 410.00 493.33 410.00 498.67 410.00 504.00
C 410.00 503.96 411.00 504.00 411.00 504.00
C 411.00 482.67 411.00 461.33 411.00 440.00
C 423.21 432.64 434.99 421.49 447.00 414.00
C 447.12 425.91 446.84 437.01 447.00 449.00 C 447.16 460.99 446.69 472.84 447.00 485.00 C 447.31 497.16 446.34 508.56 447.00 521.00 C 447.66 533.44 445.55 543.99 447.00 557.00 C 448.45 570.01 432.71 565.28 425.00 571.00
C 430.56 571.37 439.60 569.51 445.00 568.00
C 445.27 566.53 447.00 567.11 448.00 567.00
C 448.00 515.00 448.00 463.00 448.00 411.00
C 439.27 416.14 434.49 422.05 425.70 427.70 C 416.90 433.34 408.64 437.73 410.00 450.00 C 411.36 462.27 410.00 475.63 410.00 488.00 Z"/>
</g>
<g fill="#F8F9F9" fill-opacity="1.00" stroke="None">
<path d="
M 411.00 504.00 
C 411.00 512.67 411.00 521.33 411.00 530.00
C 411.90 539.29 412.00 550.00 412.00 560.00
C 412.00 564.00 412.00 568.00 412.00 572.00
C 414.58 570.18 420.84 571.00 424.00 571.00
C 424.50 571.00 425.00 571.00 425.00 571.00
C 432.71 565.28 448.45 570.01 447.00 557.00 C 445.55 543.99 447.66 533.44 447.00 521.00 C 446.34 508.56 447.31 497.16 447.00 485.00 C 446.69 472.84 447.16 460.99 447.00 449.00 C 446.84 437.01 447.12 425.91 447.00 414.00
C 434.99 421.49 423.21 432.64 411.00 440.00
C 411.00 461.33 411.00 482.67 411.00 504.00 Z"/>
</g>
<g fill="#C9ECF8" fill-opacity="1.00" stroke="None">
<path d="
M 530.00 432.00 
C 529.59 436.03 529.59 440.97 530.00 445.00
C 536.13 472.69 568.30 489.57 593.00 472.00
C 578.27 479.87 556.85 479.05 544.25 467.75 C 531.66 456.44 529.79 441.18 533.00 424.00
C 530.97 426.37 530.68 428.93 530.00 432.00 Z"/>
</g>
<g fill="#D2F4FE" fill-opacity="1.00" stroke="None">
<path d="
M 375.00 586.00 
C 377.77 584.89 385.07 584.30 387.00 582.00
C 387.05 573.19 386.94 563.75 387.00 555.00 C 387.06 546.25 386.87 537.62 387.00 529.00 C 387.13 520.38 386.72 511.45 387.00 503.00 C 387.28 494.55 386.41 484.06 387.00 476.00 C 387.59 467.94 385.65 457.07 387.00 450.00 C 388.35 442.93 383.06 430.17 389.00 426.00
C 387.01 426.51 386.35 428.96 385.00 430.00
C 387.14 440.71 385.57 451.76 386.00 463.00 C 386.43 474.24 385.54 485.61 386.00 497.00 C 386.46 508.39 385.20 518.30 386.00 530.00 C 386.80 541.70 384.37 551.67 386.00 564.00 C 387.63 576.33 383.91 579.82 375.00 586.00 Z"/>
</g>
<g fill="#61A7CA" fill-opacity="1.00" stroke="None">
<path d="
M 643.00 446.00 
C 643.77 440.61 643.78 434.46 643.00 429.00
C 643.21 434.61 643.21 440.39 643.00 446.00 Z"/>
</g>
<g fill="#4191AE" fill-opacity="1.00" stroke="None">
<path d="
M 611.00 445.00 
C 612.14 440.40 612.36 434.67 611.00 430.00
C 611.70 434.37 611.55 440.60 611.00 445.00 Z"/>
</g>
<g fill="#076AAF" fill-opacity="1.00" stroke="None">
<path d="
M 387.00 582.00 
C 385.07 584.30 377.77 584.89 375.00 586.00
C 368.71 588.53 367.97 589.28 361.23 592.23 C 354.49 595.18 358.40 600.22 365.33 598.33 C 372.26 596.44 377.06 597.00 384.00 597.00
C 403.71 595.09 424.42 592.00 445.00 592.00
C 449.33 592.00 453.67 592.00 458.00 592.00
C 464.68 591.35 472.63 591.00 480.00 591.00
C 504.00 591.00 528.00 591.00 552.00 591.00
C 556.08 591.00 560.66 591.68 564.00 592.00
C 568.00 592.00 572.00 592.00 576.00 592.00
C 580.74 592.00 586.01 592.61 590.00 593.00
C 610.33 593.03 629.72 596.81 650.00 597.00
C 646.38 586.62 632.29 585.80 622.22 581.78 C 612.16 577.75 600.69 574.51 589.67 572.33 C 578.66 570.14 565.42 566.91 554.00 566.00
C 545.46 565.32 536.00 564.97 528.00 564.00
C 525.68 563.95 522.61 564.61 521.00 563.00
C 517.28 559.28 520.71 549.75 520.00 544.00 C 519.29 538.25 519.65 530.55 520.00 524.00 C 520.35 517.45 519.79 512.34 516.00 507.00
C 515.10 505.73 514.68 504.22 514.00 503.00
C 508.96 496.15 503.54 490.29 499.00 483.00
C 499.00 483.00 499.16 482.44 499.00 482.00
C 497.32 480.58 496.40 492.11 497.00 497.00 C 497.60 501.89 496.53 510.97 497.00 517.00 C 497.47 523.03 496.36 528.98 497.00 536.00 C 497.64 543.02 495.80 547.81 497.00 556.00 C 498.20 564.19 492.46 564.00 485.00 564.00
C 482.00 564.00 479.00 564.00 476.00 564.00
C 476.00 564.00 475.49 563.94 475.00 564.00
C 474.00 564.00 473.00 564.00 472.00 564.00
C 472.00 536.00 472.00 508.00 472.00 480.00
C 469.16 475.72 472.79 468.69 470.00 464.00
C 468.35 468.20 468.47 467.57 466.00 464.00
C 466.00 469.00 466.00 474.00 466.00 479.00
C 463.78 475.31 460.31 470.87 455.00 472.00
C 454.47 468.82 456.13 464.43 454.00 462.00
C 452.98 465.19 453.67 469.34 452.00 472.00
C 449.05 466.15 452.94 456.92 450.00 451.00
C 448.97 460.60 449.09 471.26 449.00 481.00 C 448.91 490.74 449.42 501.63 449.00 511.00 C 448.58 520.37 449.99 533.48 449.00 542.00 C 448.01 550.52 453.09 565.74 445.00 568.00
C 439.60 569.51 430.56 571.37 425.00 571.00
C 425.00 571.00 424.50 571.00 424.00 571.00
C 421.90 572.15 414.69 574.93 412.00 574.00
C 409.81 573.37 411.00 562.16 411.00 560.00
C 411.00 552.00 411.00 544.00 411.00 536.00
C 410.04 526.05 410.00 514.65 410.00 504.00
C 410.00 498.67 410.00 493.33 410.00 488.00
C 407.01 474.48 410.99 457.59 408.00 444.00
C 408.19 456.12 408.05 468.19 407.00 480.00
C 402.50 477.65 397.03 489.31 397.00 480.00
C 395.45 481.83 396.01 485.43 392.00 484.00
C 385.49 468.29 391.52 448.36 388.00 432.00
C 387.86 442.08 388.18 453.01 388.00 463.00 C 387.82 472.99 388.36 483.23 388.00 493.00 C 387.64 502.77 388.78 513.61 388.00 523.00 C 387.22 532.39 389.71 544.40 388.00 553.00 C 386.29 561.60 392.26 575.72 387.00 582.00 Z"/>
</g>
<g fill="#57A2C6" fill-opacity="1.00" stroke="None">
<path d="
M 530.00 445.00 
C 529.59 440.97 529.59 436.03 530.00 432.00
C 529.06 436.25 529.04 440.69 530.00 445.00 Z"/>
</g>
<g fill="#CDE9F4" fill-opacity="1.00" stroke="None">
<path d="
M 521.00 498.00 
C 514.86 489.74 510.25 479.80 504.00 472.00
C 505.23 477.66 504.35 479.90 506.00 484.00
C 508.74 478.45 509.67 486.33 512.23 488.77 C 514.79 491.21 518.39 495.20 521.00 498.00 Z"/>
</g>
<g fill="#E4FAFE" fill-opacity="1.00" stroke="None">
<path d="
M 476.00 564.00 
C 479.00 564.00 482.00 564.00 485.00 564.00
C 487.94 563.72 492.35 562.14 496.00 563.00
C 496.09 555.82 495.88 548.12 496.00 541.00 C 496.12 533.88 495.77 525.93 496.00 519.00 C 496.23 512.07 495.51 503.47 496.00 497.00 C 496.49 490.53 494.01 480.81 498.00 479.00
C 495.68 474.77 494.35 489.98 495.00 495.00 C 495.65 500.02 495.14 512.30 495.00 518.00 C 494.86 523.70 496.15 534.82 495.00 540.00 C 493.85 545.18 498.38 559.09 493.67 561.67 C 488.96 564.25 481.31 561.10 476.00 564.00 Z"/>
</g>
<g fill="#70AACE" fill-opacity="1.00" stroke="None">
<path d="
M 485.00 564.00 
C 492.46 564.00 498.20 564.19 497.00 556.00 C 495.80 547.81 497.64 543.02 497.00 536.00 C 496.36 528.98 497.47 523.03 497.00 517.00 C 496.53 510.97 497.60 501.89 497.00 497.00 C 496.40 492.11 497.32 480.58 499.00 482.00
C 498.71 481.21 498.35 479.63 498.00 479.00
C 494.01 480.81 496.49 490.53 496.00 497.00 C 495.51 503.47 496.23 512.07 496.00 519.00 C 495.77 525.93 496.12 533.88 496.00 541.00 C 495.88 548.12 496.09 555.82 496.00 563.00
C 492.35 562.14 487.94 563.72 485.00 564.00 Z"/>
</g>
<g fill="#C2E1EF" fill-opacity="1.00" stroke="None">
<path d="
M 514.00 503.00 
C 509.88 495.58 506.10 487.96 499.00 483.00
C 503.54 490.29 508.96 496.15 514.00 503.00 Z"/>
</g>
<g fill="#79ACC8" fill-opacity="1.00" stroke="None">
<path d="
M 411.00 536.00 
C 411.00 534.00 411.00 532.00 411.00 530.00
C 411.00 521.33 411.00 512.67 411.00 504.00
C 411.00 504.00 410.00 503.96 410.00 504.00
C 410.00 514.65 410.04 526.05 411.00 536.00 Z"/>
</g>
<g fill="#84B1C9" fill-opacity="1.00" stroke="None">
<path d="
M 521.00 563.00 
C 517.82 558.46 522.15 547.88 521.00 542.00 C 519.85 536.12 520.64 528.72 521.00 522.00 C 521.36 515.28 520.20 511.99 516.00 507.00
C 519.79 512.34 520.35 517.45 520.00 524.00 C 519.65 530.55 519.29 538.25 520.00 544.00 C 520.71 549.75 517.28 559.28 521.00 563.00 Z"/>
</g>
<g fill="#CDECF6" fill-opacity="1.00" stroke="None">
<path d="
M 575.00 554.00 
C 570.89 559.44 561.11 544.78 557.30 540.70 C 553.50 536.61 545.04 526.54 541.00 522.00
C 543.35 527.87 550.74 534.62 555.25 540.75 C 559.76 546.88 566.73 553.15 573.00 557.00
C 573.26 555.74 574.58 555.21 575.00 554.00 Z"/>
</g>
<g fill="#C7EEFC" fill-opacity="1.00" stroke="None">
<path d="
M 411.00 536.00 
C 411.00 544.00 411.00 552.00 411.00 560.00
C 411.00 559.96 412.00 560.00 412.00 560.00
C 412.00 550.00 411.90 539.29 411.00 530.00
C 411.00 532.00 411.00 534.00 411.00 536.00 Z"/>
</g>
<g fill="#86BADD" fill-opacity="1.00" stroke="None">
<path d="
M 412.00 574.00 
C 411.85 573.95 412.00 572.50 412.00 572.00
C 412.00 568.00 412.00 564.00 412.00 560.00
C 412.00 560.00 411.00 559.96 411.00 560.00
C 411.00 562.16 409.81 573.37 412.00 574.00 Z"/>
</g>
<g fill="#ADD7EC" fill-opacity="1.00" stroke="None">
<path d="
M 554.00 566.00 
C 545.87 563.99 537.10 564.18 528.00 564.00
C 536.00 564.97 545.46 565.32 554.00 566.00 Z"/>
</g>
<g fill="#C9E8F8" fill-opacity="1.00" stroke="None">
<path d="
M 412.00 572.00 
C 412.00 572.50 411.85 573.95 412.00 574.00
C 414.69 574.93 421.90 572.15 424.00 571.00
C 420.84 571.00 414.58 570.18 412.00 572.00 Z"/>
</g>
<g fill="#91C6E8" fill-opacity="1.00" stroke="None">
<path d="
M 458.00 592.00 
C 465.33 592.00 472.67 592.00 480.00 592.00
C 479.96 592.00 480.00 591.00 480.00 591.00
C 472.63 591.00 464.68 591.35 458.00 592.00 Z"/>
</g>
<g fill="#D2F3FD" fill-opacity="1.00" stroke="None">
<path d="
M 480.00 592.00 
C 504.00 592.00 528.00 592.00 552.00 592.00
C 551.96 592.00 552.00 591.00 552.00 591.00
C 528.00 591.00 504.00 591.00 480.00 591.00
C 480.00 591.00 479.96 592.00 480.00 592.00 Z"/>
</g>
<g fill="#6AA1C6" fill-opacity="1.00" stroke="None">
<path d="
M 552.00 592.00 
C 556.00 592.00 560.00 592.00 564.00 592.00
C 560.66 591.68 556.08 591.00 552.00 591.00
C 552.00 591.00 551.96 592.00 552.00 592.00 Z"/>
</g>
<g fill="#C9E4F2" fill-opacity="1.00" stroke="None">
<path d="
M 384.00 597.00 
C 404.71 597.00 425.66 593.87 445.00 592.00
C 424.42 592.00 403.71 595.09 384.00 597.00 Z"/>
</g>
<g fill="#6FA0BC" fill-opacity="1.00" stroke="None">
<path d="
M 590.00 593.00 
C 586.01 592.61 580.74 592.00 576.00 592.00
C 579.99 592.39 585.26 593.00 590.00 593.00 Z"/>
</g>
</svg>