<?xml version="1.0" standalone="no"?>
<!DOCTYPE svg PUBLIC "-//W3C//DTD SVG 20010904//EN"
 "http://www.w3.org/TR/2001/REC-SVG-20010904/DTD/svg10.dtd">
<svg version="1.0" xmlns="http://www.w3.org/2000/svg"
 width="1024.000000pt" height="1024.000000pt" viewBox="0 0 1024.000000 1024.000000"
 preserveAspectRatio="xMidYMid meet">

<g transform="translate(0.000000,1024.000000) scale(0.100000,-0.100000)"
fill="#000000" stroke="none">
<path d="M2651 5028 c-5 -13 -43 -111 -84 -218 -42 -107 -119 -303 -172 -435
-54 -132 -100 -246 -102 -252 -4 -10 19 -13 95 -13 l100 0 33 98 34 97 197 3
196 2 32 -88 c17 -48 35 -93 39 -100 5 -9 34 -12 98 -10 l90 3 -133 355 c-74
195 -153 406 -175 468 l-42 112 -99 0 c-93 0 -99 -1 -107 -22z m153 -343 c24
-66 52 -137 60 -157 9 -21 16 -42 16 -48 0 -6 -46 -10 -125 -10 -73 0 -125 4
-125 10 0 19 120 333 126 328 1 -2 23 -57 48 -123z"/>
<path d="M5460 4580 l0 -470 90 0 90 0 2 193 3 192 208 3 207 2 0 -195 0 -195
90 0 90 0 0 97 c0 54 2 265 5 470 l5 373 -95 0 -95 0 0 -194 0 -195 -205 -1
-205 -1 0 196 0 195 -95 0 -95 0 0 -470z"/>
<path d="M7177 5043 c-4 -3 -7 -215 -7 -470 l0 -463 85 0 85 0 0 46 0 46 41
-36 c169 -144 444 -40 504 191 38 145 -3 306 -98 390 -111 97 -285 109 -392
28 l-43 -33 -6 45 c-3 25 -6 95 -6 154 l0 109 -78 0 c-43 0 -82 -3 -85 -7z
m443 -388 c123 -62 136 -276 23 -362 -28 -21 -49 -28 -99 -31 -54 -4 -70 -1
-108 22 -101 59 -126 213 -49 314 56 74 152 98 233 57z"/>
<path d="M3483 4811 c-151 -52 -237 -179 -237 -351 0 -107 26 -178 92 -251
111 -123 285 -145 425 -53 l37 24 0 -165 0 -165 85 0 85 0 0 480 0 480 -80 0
-80 0 0 -36 0 -36 -40 32 c-75 60 -187 76 -287 41z m213 -160 c98 -44 133
-180 77 -292 -47 -92 -137 -129 -228 -94 -135 51 -165 258 -53 362 49 46 134
56 204 24z"/>
<path d="M4340 4817 c-97 -27 -183 -107 -221 -206 -30 -75 -33 -222 -6 -298
41 -118 175 -214 298 -215 87 0 142 18 195 65 l44 39 0 -46 0 -46 85 0 85 0 0
350 0 350 -85 0 -85 0 0 -42 0 -42 -32 31 c-18 17 -49 39 -68 48 -44 23 -151
29 -210 12z m201 -170 c155 -82 132 -332 -36 -387 -81 -27 -174 13 -212 90
-42 81 -25 221 33 272 60 53 143 63 215 25z"/>
<path d="M5295 4821 c-51 -9 -103 -36 -136 -72 l-27 -29 -6 45 -7 45 -75 0
-74 0 0 -350 0 -350 84 0 85 0 3 213 c3 212 3 214 30 254 28 43 79 72 139 80
l39 6 0 83 c0 46 -3 83 -7 83 -5 -1 -26 -5 -48 -8z"/>
<path d="M6398 4583 c-2 -126 0 -250 5 -278 11 -66 47 -125 94 -158 56 -38 86
-47 161 -47 75 0 133 22 171 64 33 36 43 33 39 -11 l-3 -38 83 -3 82 -3 0 351
0 350 -85 0 -85 0 0 -212 c0 -194 -2 -215 -21 -254 -26 -55 -77 -87 -139 -88
-56 -1 -91 15 -114 55 -14 24 -17 53 -17 167 1 75 -2 181 -5 235 l-7 97 -77 0
-78 0 -4 -227z"/>
</g>
</svg>
