<?xml version="1.0" standalone="no"?>
<!DOCTYPE svg PUBLIC "-//W3C//DTD SVG 20010904//EN"
 "http://www.w3.org/TR/2001/REC-SVG-20010904/DTD/svg10.dtd">
<svg version="1.0" xmlns="http://www.w3.org/2000/svg"
 width="1024.000000pt" height="1024.000000pt" viewBox="0 0 1024.000000 1024.000000"
 preserveAspectRatio="xMidYMid meet">

<g transform="translate(0.000000,1024.000000) scale(0.100000,-0.100000)"
fill="#000000" stroke="none">
<path d="M6479 4781 c-64 -65 -20 -171 71 -171 81 0 125 60 100 135 -15 46
-44 65 -98 65 -35 0 -49 -6 -73 -29z"/>
<path d="M6783 4795 c-27 -19 -46 -75 -37 -109 10 -41 59 -76 106 -76 30 0 46
7 69 29 65 65 20 171 -73 171 -24 0 -53 -7 -65 -15z"/>
<path d="M5887 4648 c-4 -84 -5 -277 -4 -428 2 -240 4 -280 20 -315 23 -50 52
-82 99 -106 36 -18 72 -19 928 -19 l890 0 0 100 0 100 -107 0 c-165 1 -232 40
-241 144 -6 74 16 119 75 147 39 19 56 21 127 16 45 -3 94 -10 109 -16 l27
-11 0 100 0 99 -40 11 c-53 14 -197 14 -252 0 -107 -29 -212 -119 -242 -207
-22 -65 -20 -161 4 -225 11 -29 20 -56 20 -60 0 -5 -65 -8 -145 -8 -80 0 -145
1 -145 3 0 1 9 28 20 60 62 175 -9 343 -176 419 -39 18 -67 22 -144 23 -82 0
-102 -4 -150 -26 -76 -36 -144 -100 -176 -165 -35 -71 -43 -170 -19 -234 32
-88 42 -80 -93 -80 -113 0 -123 2 -149 24 l-28 24 -3 391 -3 391 -98 0 -99 0
-5 -152z m896 -376 c32 -19 67 -85 67 -128 0 -151 -155 -224 -258 -121 -28 28
-36 45 -40 85 -8 90 27 150 105 178 42 15 83 10 126 -14z"/>
<path d="M3740 4347 c0 -303 3 -383 15 -424 19 -63 46 -98 96 -123 37 -19 61
-20 604 -20 l565 0 0 118 c0 172 -29 272 -114 391 -43 61 -155 137 -241 164
-60 19 -93 22 -230 22 -88 0 -172 -3 -187 -8 -28 -7 -28 -8 -28 -93 0 -77 2
-85 18 -80 109 33 186 30 226 -11 32 -32 39 -101 9 -88 -10 5 -43 13 -73 18
-64 12 -148 -8 -195 -45 -37 -29 -65 -93 -65 -150 l0 -48 -68 0 c-61 0 -71 3
-93 26 l-24 26 3 349 2 349 -110 0 -110 0 0 -373z m998 -153 c33 -40 60 -116
64 -184 l3 -45 -65 0 -65 0 -3 143 c-2 139 -2 143 17 133 11 -6 33 -27 49 -47z
m-292 -130 c23 -6 44 -42 44 -74 0 -18 -7 -20 -80 -20 l-80 0 0 34 c0 54 48
78 116 60z"/>
<path d="M2302 4206 l3 -193 35 -69 c38 -75 102 -132 170 -153 25 -7 180 -11
481 -11 427 0 444 1 485 21 26 12 53 36 66 57 22 35 23 49 27 245 1 115 0 228
-4 253 l-6 44 -100 0 -99 0 0 -199 c0 -188 -1 -201 -20 -214 -16 -11 -85 -13
-382 -10 -468 4 -438 -14 -438 256 l0 167 -111 0 -110 0 3 -194z"/>
<path d="M5500 4108 c0 -266 -2 -297 -19 -335 -26 -57 -67 -78 -153 -77 l-68
1 0 -88 0 -88 43 -12 c97 -26 245 24 312 106 75 91 79 111 83 468 l4 317 -101
0 -101 0 0 -292z"/>
<path d="M2888 3651 c-28 -25 -33 -36 -33 -76 0 -40 5 -51 33 -76 46 -42 93
-40 138 5 97 97 -36 239 -138 147z"/>
</g>
</svg>
